<?xml version="1.0" encoding="UTF-8"?>
<svg id="Capa_2" data-name="Capa 2" xmlns="http://www.w3.org/2000/svg" viewBox="0 0 740.93 669.68">
  <defs>
    <style>
      .cls-1 {
        fill: #fff;
      }
    </style>
  </defs>
  <g id="Capa_1-2" data-name="Capa 1">
    <g>
      <g>
        <path class="cls-1" d="M651.2,523.56c.61,2.42,1.59,6.34,2.82,11.18l1.11,4.4c2.3,9.09,2.6,10.25,3.04,13.03,1.77,10.93,1.46,19.3-1.04,28.88-4.16,15.93-17.25,31.07-31.85,36.81-4.12,1.62-8.13,2.41-12.27,2.41-10.19,0-19.77-4.64-34.27-11.66-11.46-5.55-25.72-12.45-45.56-19.6-25.82-9.3-41.14-14.56-55.75-14.56-4.77,0-9.38.58-14.08,1.78-18.11,4.61-34.03,17.29-47.29,37.67l-9.95,15.3.56-13.4-21.04,33.12-8.29-23.15-1.55,37.71-7.56-5.51c-4.68-3.42-9.27-7.09-13.63-10.93-2.13-1.88-4.24-3.81-6.3-5.79.04,5.08.47,10.19,1.29,15.21l2.16,13.21-10.29-8.56c-18.68-15.54-34.32-33.68-46.46-53.9-1.34-2.24-2.65-4.52-3.92-6.82-.05.18-.1.36-.15.54-1.31,4.8-2.56,9.69-3.74,14.54l-3.36,13.83-6.03-12.89c-4.93-10.54-9.74-21.29-14.3-31.96-2.51-5.88-4.99-11.82-7.41-17.78-1.59,3.51-3.42,6.95-5.43,10.23l-5.53,8.99-11.81-34.1-8.89,15.43-4.62-4.79c-4.39-4.56-7.87-9.72-10.34-15.32-5.87-13.32-4.22-25.56-2.63-37.39.59-4.37,1.38-8.72,2.39-13.05l-27.33,33.67c2.78-19.43,8.05-42.39,17.97-66.97,3.59-8.88,7.42-17.1,11.34-24.64-9.39,7.17-19.19,13.95-29.2,20.2l-14.35,8.96,7.17-15.32c7.59-16.23,16.74-31.84,27.19-46.4,9.32-12.98,19.76-25.26,31.1-36.55-11.93-11.25-24.88-20.64-38.55-27.93-14.88-7.95-30.76-13.6-43.52-18.15-5.73-2.04-11.54-3.98-17.29-5.78l-10.91-3.41,19.07-10.97c-8.63-2.04-17.16-4.53-25.5-7.45-11.35-3.97-22.52-8.79-33.19-14.33l-12.53-6.5,13.83-2.83c9.67-1.98,19.24-4.74,28.43-8.2.04-.01.08-.03.11-.04-2.66-.74-5.34-1.35-8.05-1.84-5.13-.92-10.38-1.39-15.61-1.39-4.5,0-9.06.35-13.53,1.03l-10.93,1.67,5.97-9.31c1.84-2.87,4.08-5.42,6.65-7.58,2.83-2.37,5.64-3.91,8.18-5.01l-18.47-5.89,20.51-9.44c-4.71-1.6-9.62-2.67-14.62-3.19l-10.58-1.09,7.58-7.45c4.05-3.98,8.58-7.45,13.47-10.31,2.05-1.2,4.16-2.29,6.32-3.28-1.2-.46-2.41-.89-3.62-1.29-.13-.04-13.69-4.42-33.72-4.42-6.19,0-12.43.42-18.53,1.24-5.21.7-11.08,1.8-11.13,1.81-1.64.31-3.21.62-4.69.93l-18.27,3.82,13.92-12.44c3.09-2.76,6.31-5.46,9.58-8.04,7.48-5.89,15.81-11.56,23.45-15.95,10.27-5.9,24.34-13.98,43.96-17.71,7.75-1.47,13.33-1.71,20.4-2.02,2.65-.11,5.31-.17,7.94-.17,13.2,0,26.37,1.4,39.25,4.16-.67-.69-1.34-1.38-2-2.08-7.15-7.62-13.42-16.1-18.62-25.19l-3.92-6.84,7.72-.61c-1.14-1.3-2.25-2.63-3.31-3.98-4.36-5.53-8.16-11.54-11.27-17.88l-4.67-9.49,6,1.41c-2.09-3.41-4.11-6.85-6.04-10.32-10.85-19.47-19.47-40.34-25.62-62.04l-3.92-13.83,11.66,8.41c15.02,10.83,30.87,20.89,47.12,29.88,16.33,9.04,29.32,14.96,32.92,16.56,14.55,6.47,24.19,9.68,36.41,13.73,8.52,2.83,18.18,6.04,31.65,11.03,27.84,10.32,41.8,15.5,54.1,23.32,24.12,15.32,38.45,32.89,45.34,41.33,19.27,23.61,32.62,50.41,37.01,59.22,1.33,2.68,2.59,5.28,3.81,7.81,7.27,15.07,13.01,26.98,26.41,35.75,2.38,1.56,4.88,2.94,7.5,4.15l-2.35-8.2,10.08,4.9c4.21,2.05,19.3,9.73,31.8,16.18-.31-.48-3.81-14.01-4.12-14.48l34.48,22.15c-.1-.33-.2-.67-.3-1l-4.92-16.85,40.11,36.02-.72-12.03,9.61,10.9c6.21,7.04,12.55,14.28,18.84,21.5,9.13,10.48,18.28,21.09,27.2,31.52l1.14,1.34.06,1.81c7.38,3.37,15.05,5.57,22.84,6.57,2.99.38,5.76.56,8.7.56,2.43,0,4.64-.12,6.98-.25,2.35-.13,4.78-.26,7.44-.26,2.21,0,4.33.09,6.49.28,11.72,1.02,23.46,4.89,34.94,11.51,12.62.64,25.26,1.74,37.58,3.26,14.71,1.82,23.22,3.2,26.89,10.45,3.05,6.02.79,12.74-3.3,24.96-1.71,5.09-3.18,9.5-6.15,15.01-3.75,6.97-7.02,10.31-10.49,13.85-2.8,2.85-5.69,5.81-9.57,11.34-4.59,6.55-7.91,11.28-10.53,18.49-.35.96-.68,1.95-1.03,2.98-1.37,4.08-3.08,9.17-6.75,15.23-1.58,2.61-3.35,5.12-5.27,7.48l-4.92,6.04-2.24-4.55c-1.48,1.08-3.2,1.85-5.03,2.24l-3.97.85c-1.32,1.49-2.67,2.6-3.79,3.39l-5.08,3.57-1.93-4.6c-2.08,6.46-5.33,13.4-10.36,20.08l2.09,10.16Z"/>
        <path d="M532.62,483.17c18.19,2.95,30.47,13.41,40.08,21.8,20.15,17.6,23.05,30.47,42.6,37.76,3.79,1.41,7.05,2.18,9.2,2.61,2.61-3.91,5.23-7.81,7.84-11.72.98,1.32,4.76,8.08,5.37,9.59,1.68-2.34,3.54-5.31,5.23-8.93,1.64-3.52,2.71-6.78,3.41-9.51.61,2.42,1.59,6.35,2.82,11.19,3.28,12.98,3.6,14.07,4.07,17.01,1.86,11.53,1.06,19.16-.94,26.82-3.74,14.33-15.68,28.25-28.84,33.42-20.97,8.25-35.05-9.62-88.57-28.9-33.12-11.93-51.58-18.31-72.76-12.93-25.3,6.44-41.53,26.4-50.25,39.79.19-4.6.39-9.2.58-13.8l-25.56,40.23-13.49-37.7c-.74,18.01-1.48,36.01-2.21,54.02-4.23-3.09-8.7-6.62-13.28-10.64-5.33-4.68-9.98-9.31-14.02-13.69-.37,3.46-.6,7.29-.58,11.42.03,6.09.59,11.55,1.36,16.25-14.58-12.12-31.33-29.24-45.37-52.63-3.66-6.09-6.81-12.07-9.53-17.83-1.24,4.17-2.46,8.44-3.65,12.82-1.36,4.98-2.61,9.87-3.78,14.67-4.78-10.22-9.54-20.83-14.23-31.8-4.33-10.12-8.39-20.05-12.2-29.77-.95,3.34-2.25,7.11-4.03,11.14-1.77,4.01-3.66,7.48-5.48,10.42-3.98-11.5-7.96-22.99-11.95-34.49-3.68,6.39-7.36,12.78-11.04,19.17-2.75-2.86-6.54-7.45-9.37-13.87-5.2-11.81-3.89-22.54-2.25-34.71,1.26-9.41,4.13-23.2,11.28-38.99-11.71,14.62-23.43,29.24-35.14,43.86,3.72-14.8,8.99-31.73,16.56-49.96,7.56-18.19,15.83-33.85,23.67-46.91-5.17,4.55-10.7,9.15-16.6,13.76-11.09,8.67-21.93,16.13-32.2,22.55,6.25-13.35,14.86-29.07,26.72-45.6,11.71-16.32,23.68-29.37,34.2-39.49-16.56-16.44-32.18-26.36-43.36-32.33-15.21-8.12-31.64-13.98-44.21-18.45-7.15-2.55-13.19-4.5-17.47-5.84,6.84-3.94,13.68-7.87,20.53-11.81-11.07-2.01-23.85-5.11-37.71-9.96-12.46-4.36-23.33-9.27-32.53-14.05,8.89-1.82,18.75-4.49,29.19-8.42,4.31-1.62,8.38-3.33,12.2-5.08-5.45-2.39-12.53-4.88-21.02-6.4-12.58-2.26-23.34-1.51-30.78-.38,1.11-1.73,2.91-4.14,5.66-6.44,3.88-3.25,7.62-4.62,11.29-5.9,2.64-.92,6.38-2,11.04-2.66-7.34-2.34-14.68-4.68-22.03-7.02,6.31-2.9,12.62-5.81,18.93-8.71-2.38-1.27-5.06-2.54-8.04-3.68-6.86-2.64-13.18-3.83-18.3-4.36,2.96-2.9,7.08-6.39,12.49-9.56,6.56-3.84,12.68-5.85,17.19-6.94-6.3-3.4-11.73-5.45-15.44-6.68,0,0-23.04-7.63-54.5-3.38-5.41.73-11.39,1.85-11.39,1.85-1.68.32-3.28.63-4.79.95,2.33-2.09,5.49-4.81,9.34-7.84,10.77-8.49,19.87-13.83,22.85-15.54,10.3-5.92,23.62-13.56,42.41-17.14,7.39-1.41,12.75-1.64,19.7-1.94,11.41-.49,30.6-.23,53.25,5.62,5.89,1.52,10.67,3.07,13.89,4.19-5.61-4.06-12.05-9.4-18.53-16.31-8.14-8.68-13.91-17.23-17.93-24.25,3.5-.28,7-.56,10.49-.83-3.27-3-6.86-6.71-10.42-11.22-4.83-6.12-8.26-12.02-10.71-16.99,2.58.61,5.16,1.21,7.73,1.82-4.24-6.29-8.47-13.1-12.56-20.45-12.18-21.85-20.02-42.78-25.18-60.97,12.3,8.87,28.25,19.48,47.63,30.2,16.34,9.04,29.26,14.95,33.31,16.75,24.79,11.03,35.23,12.6,68.35,24.88,27.53,10.21,41.3,15.32,53.15,22.85,22.96,14.59,36.96,31.47,44.15,40.28,18.53,22.71,31.31,48.06,36.4,58.28,9.51,19.09,15.05,34.44,31.95,45.5,6.81,4.46,13.29,6.8,17.77,8.08-.66-2.31-1.32-4.62-1.98-6.92,6.4,3.11,38.31,19.43,47.39,24.35-1.48-2.68-3.06-5.43-4.74-8.22-1.81-3.01-3.62-5.88-5.42-8.62,13.01,8.55,26.01,17.1,39.02,25.66-1.58-2.45-3.25-5.42-4.76-8.9-1.14-2.61-1.99-5.08-2.64-7.32,12.04,10.81,24.08,21.62,36.11,32.43-.19-3.23-.39-6.45-.58-9.68,6.26,7.11,12.54,14.26,18.82,21.48,9.17,10.53,18.22,21.02,27.17,31.48.03,1.03.06,2.07.1,3.1,5.98,2.98,15.28,6.82,27.11,8.33,12.57,1.6,18.52-.63,29.81.35,8.19.71,19.94,3.18,33.9,11.46,15.64.76,28.69,2.09,38.44,3.29,15.07,1.86,20.77,3.25,23.04,7.75,2.1,4.15.21,9.8-3.58,21.11-1.65,4.91-3.05,9.1-5.81,14.23-6.27,11.66-10.71,11.79-19.75,24.69-4.69,6.69-8.29,11.83-11.13,19.65-1.74,4.8-3.08,10.26-7.36,17.33-1.85,3.06-3.64,5.4-4.87,6.91-.96-1.95-1.92-3.9-2.87-5.84-.03.66-.27,3.86-2.9,6.1-1.34,1.14-2.76,1.57-3.58,1.74-.93-3.76-1.85-7.51-2.78-11.27.25,1.48.71,5.43-1.3,9.76-1.68,3.61-4.25,5.67-5.5,6.55-1.94-4.62-3.87-9.23-5.81-13.85-.63,7.32-2.93,21.02-12.68,33.98-3.49,4.63-7.2,8.22-10.55,10.94.41-11.42-.08-25.01-2.61-40.08-1.31-7.78-2.99-14.93-4.84-21.4-7,3.84-14.01,7.68-21.01,11.52-1.48-4.55-2.97-9.1-4.45-13.65-5,4.26-10,8.52-15.01,12.78-2.32-5.74-4.65-11.49-6.97-17.23-1.89,2.11-12.46,11.43-15.1,13.23-1.36-2.3-7.48-11.96-9.07-14.3-4.08.05-14.1.73-24.15,7.46-12.09,8.1-16.34,19.68-17.52,23.33,4.4-.61,11.02-1.08,18.79.18ZM176.97,81.28c11.35,6.86,20.42,12.34,29.37,16.86,16.87,8.52,27.78,10.84,43.67,15.88,14.46,4.59,35.01,12.05,59.62,24.34,11.3,6.31,22.6,12.62,33.91,18.93-6.1-8.57-15.87-20.52-30.3-31.95-3.58-2.83-12.82-9.89-28.95-18.11-33.13-16.88-51.43-16.3-96.98-33.98-5.31-2.06-12.82-5.08-22.08-9.64-14.18-6.98-25.14-13.96-32.26-18.83,1.93,3.51,4.05,7.14,6.39,10.84,4.11,6.51,8.31,12.34,12.39,17.52-.03-2.58-.06-5.16-.1-7.75,6.12,3.97,14.79,9.5,25.33,15.87ZM323.29,246.08c-2.99-2.96-6.38-6.19-10.16-9.59,0,0-17.81-15.99-37.84-28.69-34.41-21.8-75.08-32.92-88.51-36.52-39.15-10.46-62.73-16.76-92.51-9-15.1,3.93-26.78,10.18-34.56,15.1,15.55-1.23,36.14-1.88,60.2.16,8.09.69,33.58,3.11,68.76,12.47,54.97,14.62,102.32,37.84,134.63,56.06ZM166.79,278.18c2.22-.6,5.62-1.81,9.15-4.36,3.31-2.38,5.46-5.01,6.73-6.84-8.64-9.96-18.74-20.6-30.44-31.43-11.81-10.93-23.31-20.25-34-28.15-9.1,2.79-18.2,5.58-27.3,8.37,3.41,1.04,7.04,2.33,10.82,3.95,9.88,4.24,17.78,9.45,23.79,14.21-6.78.95-13.55,1.9-20.33,2.86,7.68,1.86,18.47,5.37,30.03,12.36,10.52,6.36,18.13,13.46,23.22,18.99-7.69,1.44-16.32,3.55-25.56,6.7-5.97,2.04-11.45,4.24-16.41,6.49,9.32,1.74,19.77,4.24,31.01,7.86,11.45,3.69,21.57,7.84,30.28,11.94-2.48,1.27-5.02,2.63-7.61,4.08-2.55,1.43-5.01,2.87-7.35,4.3,16.84,4.27,35.09,11.13,53.27,22.08,2.29,1.38,4.51,2.78,6.66,4.2-1.43-3.63-3.63-8.68-6.84-14.41-4.81-8.59-12.5-21.99-27.44-32.52-4.64-3.27-11.82-7.55-21.68-10.68ZM280.97,420.37c3.05-1.87,7.09-5.21,10.82-9.05,2.62-2.7,5.2-4.15,6.75-6.49-18.78-3.17-36.73-13.85-50.72-26.56-2.12,1.61-4.25,3.32-6.37,5.13-13.78,11.74-23.86,24.67-31.28,36.72,11.3-6.87,22.59-13.75,33.89-20.62-3.7,10.16-7.99,20.86-12.97,31.95-6.6,14.69-13.5,28.06-20.33,40.08,11.07-11.97,22.14-23.95,33.21-35.92-1.83,4.68-13.76,35.37-18.06,58.65-.78,4.22-2.04,11.08-2.15,20.26-.08,6.56.51,12.34,1.28,18.74,2-3.46,4-6.91,6.02-10.38,2.86-4.92,5.73-9.83,8.59-14.71,1.16,5.13,2.32,10.26,3.49,15.39.68,3.6,1.36,7.2,2.05,10.81.13-.61.26-1.21.39-1.82,1.87-8.73,3.89-17.32,6.06-25.76,5.51,11.81,10.96,24.59,16.12,38.33,3.29,8.77,6.23,17.31,8.86,25.57,2.32-9.95,4.64-19.91,6.96-29.86,1.35,3.5,3.4,8.59,6.12,14.63,4.46,9.9,12.11,25.35,23.94,42.94,2.65,3.94,6.37,9.27,11.12,15.43-.37-8.12.12-18.43,3.12-29.85,1.04-3.95,2.25-7.57,3.54-10.86,7.65,14.44,15.31,28.88,22.96,43.33-.67-11.98-.12-28.77,5.56-47.67,2.69-8.94,6.01-16.67,9.32-23.12,9.24,10.41,18.48,20.82,27.71,31.22,3.05-4.31,6.45-8.77,10.21-13.31,6.76-8.14,13.54-15.12,19.94-21.06-6.67.52-13.59.94-20.73,1.22-7.43.29-14.63.43-21.58.42,7.06-16.12,13.35-28.31,17.14-34.81,3.88-6.66,7.7-12.15,7.7-12.15,1.2-1.74,2.42-3.39,4.27-5.86,4.15-5.53,8.02-10.07,11.18-13.55-9.09-3.93-18.18-7.87-27.27-11.8.88-1.61,1.77-3.22,2.65-4.83-7.36-1.08-14.72-2.15-22.07-3.23,1.82-2.52,3.63-5.03,5.45-7.55-7.02-1.27-14.88-2.27-23.48-2.71-4.98-.26-9.72-.3-14.17-.19,3.12-2.66,5.58-4.89,7.14-6.33,6.3-5.82,9.14-9.12,17.22-16.87,2.24-2.14,4.05-3.86,5.12-4.87-3.15-2.29-6.29-4.57-9.44-6.86,2.75-1.29,6.17-2.64,10.2-3.7,3.87-1.01,7.37-1.52,10.3-1.75-1.1-2.28-2.42-4.72-3.98-7.26-2.02-3.29-4.1-6.15-6.07-8.6,11.64,4.3,23.29,8.59,34.93,12.89-2.06,1.59-4.34,3.23-6.83,4.86-2.77,1.81-5.44,3.37-7.95,4.72,4.43,3.39,8.86,6.78,13.29,10.17-2.78,1.78-5.99,3.62-9.64,5.36-4.63,2.21-8.98,3.8-12.8,4.95,12.52,1.39,25.03,2.78,37.55,4.17l6.33.65c-1.33,1.23-2.83,2.49-4.54,3.74-3.68,2.69-7.24,4.55-10.3,5.85,6.18.12,32.5.21,36.89.01-2.59,4.71-15.52,10.38-15.97,10.64,6.8,3.41,16.38,6.73,25.41,3.44,7.53-2.75,10.65-8.62,16.42-15.04,6.22-6.92,16.45-15.51,33.78-21.84,3.56-1.05,7.13-2.09,10.69-3.14,8.54-2.97,17.08-5.95,25.61-8.92-1.05,1.53-2.1,3.07-3.15,4.6,6.18-1.03,12.36-2.07,18.54-3.1,14.57-1.57,29.14-3.15,43.71-4.72,7.89,0,15.78.02,23.67.03-4.52-3.46-15.18-10.89-28.78-13.3-6.46-1.15-12.52-.97-13.39-.94-1.43.05-5.78.24-13.46,1.85-5.3,1.11-12.38,2.95-20.6,6.1,3.82-3.07,8.3-6.27,13.46-9.34,9.13-5.45,17.78-8.94,24.98-11.23-4.14-4.32-8.8-8.83-14.02-13.41-5.56-4.87-10.98-9.13-16.09-12.83-1.8,2.74-4.71,6.43-9.15,9.78-2.62,1.98-5.16,3.37-7.31,4.36,12.45,5.09,14.91,7.58,14.62,8.91-.26,1.19-2.7,1.35-10.3,2.49-14.17,2.12-18.97,3.53-19.32,2.49-.36-1.04,4.12-3.51,6.74-4.65,4.99-2.18,9.56-2.28,12.19-2.12-5.67-1.69-10.62-1.79-14.92-.96-6.97,1.35-9.09,4.55-15.53,5.02-5.56.41-9.8-1.54-14.06-3.49-10.98-5.04-11.76-10.66-19.61-13.81-4.97-2-9.64-1.75-20.55.47-10.44,2.13-24.95,5.73-42.33,12.13,9.19-.31,18.38-.63,27.57-.94.19,1.78.1,2.7-1.09,4.1-3.55,4.2-25.02,4.37-31.19,6.27l11.53-5.76h-17.3c-.19-2.37-.31-3.33,1.95-4.4,7.38-3.51,17-5.86,24.89-8.55,20.21-6.89,41.11-12.77,62.49-14.76,8.41-.78,16.71.42,24.82,2.34-4.79-3.16-19.83-12.17-38.1-8.69-4.85.92-8.98,2.55-12.33,4.27.92-.78,2.37-1.93,4.3-3.07,13.5-8.03,34.69-7.87,48.35,2.39,5.34,4.01,12.33,13.93,19.74,11.54,5.1-1.65,5.71-8.1,4.37-12.59-.63-2.1-1.28-4.62-7.89-11.71-6.81-7.3-10.21-10.95-14.63-13.35-7.23-3.92-14.54-4.69-19.96-4.52,2.11,2.48,4.22,4.97,6.34,7.45-18.19-5.68-36.37-11.36-54.56-17.04,6.46,3.25,13.31,7.09,20.38,11.62,3.73,2.39,7.24,4.8,10.54,7.19-13.87-4.33-25.95-5.91-34.84-6.46-11.16-.69-20.27.04-25.72.67-5.68.65-10.52,1.55-14.32,2.38,5.72,2.89,13.79,7.98,20.82,16.7,2.52,3.13,4.5,6.22,6.05,9.05-5.65-2.22-13.97-4.75-24.27-5.45-9.06-.61-16.7.41-22.24,1.57-.5,1.93-1.07,3.95-1.75,6.05-.64,1.98-1.31,3.85-1.98,5.62-1.51-1.05-4.04-2.54-7.49-3.36-4.05-.96-7.44-.55-9.35-.18,1.97,4.23,3.94,8.46,5.91,12.68-8.19-.12-17.57-.97-27.74-3.24-30.81-6.88-52.39-23.05-64.26-33.73-2.94-3.49-5.87-6.98-8.81-10.46,2.15,6.73,6.01,16.2,13.12,26.09,6.27,8.72,12.98,14.88,18.18,18.96l-20.77-4.01-16.67-7.49c5.57,5.65,14.8,13.66,28.08,20.04,13.44,6.46,25.61,8.64,33.55,9.44,0,0-9.34,5.87-18.25,12.68-9.04,6.92-17.66,14.8-17.96,15.1,5.55,2.43,11.88,6.24,17.43,8.67-9.27.22-19.32-.93-28.59-.71-3.99-.23-8.28.17-12.27-.07ZM508.98,357.5c-2.27.16-4.55.32-6.82.48.08,1.38.36,3.4,1.34,5.57,2.33,5.13,8.04,9.9,14.7,9.58,3.58-.17,9.2-1.89,11.08-6.61.86-2.17.65-4.24.39-5.51-1.9-.41-3.8-.81-5.7-1.22.72,3.82-1.17,7.54-4.38,8.97-3.03,1.36-6.36.29-8.36-1.43-2.01-1.73-2.52-4-2.67-4.72-.5-2.39.11-4.33.41-5.12ZM513.12,491.14c.17,2.37.34,4.74.51,7.11,3.28.52,6.57,1.04,9.85,1.55.94,3.48,1.89,6.96,2.83,10.43,5.12.91,10.25,1.82,15.37,2.73,2.42,5.08,4.83,10.16,7.25,15.24,4.43.6,8.85,1.2,13.28,1.8,1.54,3.92,3.09,7.84,4.63,11.76,4.65-.43,9.3-.87,13.96-1.3,2.17,4.55,4.34,9.1,6.5,13.65,4.93-.81,9.86-1.61,14.8-2.42,3.55,4.06,7.1,8.12,10.65,12.18,3.15-5.03,6.29-10.06,9.44-15.09-14.15-2.15-24.11-6.74-30.55-10.48-27.12-15.78-31.36-39.68-55.28-46.59-9.69-2.8-18.39-1.6-23.24-.58Z"/>
      </g>
      <path class="cls-1" d="M505.31,409.86c-12.43,0-23.17-3.83-31.06-11.08-5.64-5.18-9.86-12.18-12.21-20.26l8.61-4.64c5.72,6.72,12.57,11.9,20.36,15.4,7.33,3.29,15.27,4.96,23.61,4.96h0c7.01,0,14.22-1.19,20.85-3.43l4.4,8.88c-4.78,3.22-9.95,5.69-15.36,7.35-2.76.85-10.16,2.82-19.19,2.82Z"/>
      <path d="M537.07,395.54c-3,2.02-7.75,4.79-14.03,6.72-3.21.98-28.54,8.33-45.41-7.16-2.77-2.54-7.92-8.1-10.79-17.98,4.06,4.77,11.23,11.83,22.12,16.72,21.89,9.83,42.53,3.6,48.11,1.71Z"/>
    </g>
  </g>
</svg>